
nColumns=19
nRows=68
DataType=double
version=3
OpenSimVersion=4.4-2022-10-11-798caa840
endheader
time	ground_force_calcn_r_vx	ground_force_calcn_r_vy	ground_force_calcn_r_vz	ground_force_calcn_r_px	ground_force_calcn_r_py	ground_force_calcn_r_pz	ground_force_calcn_r_mx	ground_force_calcn_r_my	ground_force_calcn_r_mz	ground_force_calcn_l_vx	ground_force_calcn_l_vy	ground_force_calcn_l_vz	ground_force_calcn_l_px	ground_force_calcn_l_py	ground_force_calcn_l_pz	ground_force_calcn_l_mx	ground_force_calcn_l_my	ground_force_calcn_l_mz
10.05	8.45532	506.465	-48.4353	-0.230716	0	-0.383999	-0.0404173	-2.42095	0.231525	0.423804	196.934	41.8553	-0.210641	0	-0.7602	0.00353326	1.64184	0.348948
10.06	7.87076	504.546	-48.9689	-0.230418	0	-0.383761	-0.0382876	-2.45438	0.238211	0.561571	196.973	41.8707	-0.211158	0	-0.760204	0.00457201	1.60365	0.340889
10.07	7.23881	501.861	-49.4149	-0.230119	0	-0.383529	-0.0357481	-2.47839	0.244031	0.68642	196.918	41.8847	-0.211665	0	-0.760231	0.0054561	1.56523	0.332926
10.08	6.57317	498.34	-49.7406	-0.229841	0	-0.383317	-0.0328601	-2.49126	0.248659	0.801395	196.742	41.8961	-0.212164	0	-0.76028	0.00621958	1.5269	0.325153
10.09	5.8814	493.928	-49.9158	-0.229602	0	-0.383135	-0.0296676	-2.49153	0.251791	0.908336	196.428	41.9037	-0.212654	0	-0.760351	0.00688563	1.48902	0.317651
10.1	5.16537	488.602	-49.9138	-0.229419	0	-0.382992	-0.0261968	-2.47801	0.253144	1.00681	195.966	41.9077	-0.21313	0	-0.760443	0.00745856	1.45174	0.310457
10.11	4.42454	482.365	-49.7132	-0.229296	0	-0.382897	-0.0224708	-2.44978	0.252478	1.09386	195.354	41.9082	-0.213584	0	-0.760557	0.00792315	1.415	0.303553
10.12	3.65886	475.25	-49.2983	-0.229239	0	-0.382859	-0.0185254	-2.40627	0.249606	1.16507	194.585	41.9041	-0.213999	0	-0.760688	0.00825331	1.37843	0.296847
10.13	2.87108	467.307	-48.6605	-0.229245	0	-0.382879	-0.0144214	-2.34727	0.244421	1.21649	193.651	41.8903	-0.214357	0	-0.760834	0.00842758	1.34158	0.290208
10.14	2.06692	458.599	-47.7991	-0.229306	0	-0.382962	-0.0102446	-2.27303	0.236915	1.24712	192.54	41.8569	-0.214643	0	-0.760987	0.008446759999999999	1.30408	0.283498
10.15	1.25486	449.195	-46.7222	-0.229412	0	-0.383106	-0.00610209	-2.18434	0.227199	1.26054	191.233	41.7886	-0.21485	0	-0.761134	0.00834407	1.26586	0.276617
10.16	0.446361	439.173	-45.4465	-0.22955	0	-0.383307	-0.00211672	-2.08264	0.215515	1.26502	189.708	41.666	-0.214982	0	-0.76126	0.008182470000000001	1.22708	0.269506
10.17	-0.343222	428.627	-43.9966	-0.22971	0	-0.383561	0.00157751	-1.97005	0.202217	1.27251	187.938	41.466	-0.215049	0	-0.761344	0.00804533	1.18822	0.262165
10.18	-1.09392	417.671	-42.404	-0.229884	0	-0.383862	0.00484357	-1.84934	0.187753	1.29642	185.898	41.165	-0.215071	0	-0.761368	0.00801809	1.14974	0.254597
10.19	-1.78166	406.44	-40.7057	-0.230066	0	-0.384198	0.0075566	-1.72385	0.172647	1.34884	183.567	40.7417	-0.215069	0	-0.761312	0.00816996	1.11187	0.246774
10.2	-2.38172	395.084	-38.9446	-0.230258	0	-0.384559	0.00962988	-1.59742	0.157463	1.43793	180.932	40.1797	-0.21506	0	-0.7611599999999999	0.00854004	1.07458	0.238633
10.21	-2.87356	383.762	-37.1679	-0.23046	0	-0.384932	0.0110379	-1.47411	0.14277	1.56651	177.986	39.4681	-0.215056	0	-0.760895	0.00913169	1.03754	0.230073
10.22	-3.2441	372.645	-35.4249	-0.230674	0	-0.385302	0.0118211	-1.35787	0.129084	1.73203	174.73	38.6012	-0.215064	0	-0.760503	0.0099133	1.00007	0.220934
10.23	-3.48971	361.909	-33.7643	-0.230901	0	-0.385653	0.0120753	-1.2523	0.116833	1.92764	171.176	37.5773	-0.215085	0	-0.759969	0.0108242	0.961199	0.211006
10.24	-3.6164	351.731	-32.2321	-0.231136	0	-0.385968	0.0119307	-1.16038	0.106335	2.14356	167.346	36.3999	-0.215113	0	-0.759285	0.0117811	0.91974	0.200056
10.25	-3.63826	342.275	-30.8685	-0.231374	0	-0.386233	0.0115239	-1.08413	0.0977739	2.36717	163.279	35.0792	-0.215139	0	-0.758445	0.0126778	0.87447	0.187873
10.26	-3.57496	333.693	-29.7057	-0.231608	0	-0.386435	0.0109757	-1.02449	0.091201	2.58303	159.046	33.6344	-0.215148	0	-0.757454	0.0133874	0.824307	0.174321
10.27	-3.44864	326.117	-28.7655	-0.23183	0	-0.386566	0.0103764	-0.981232	0.0865504	2.77377	154.743	32.0942	-0.21513	0	-0.75632	0.0137736	0.768401	0.159369
10.28	-3.27978	319.657	-28.0567	-0.232033	0	-0.386622	0.009779889999999999	-0.953178	0.08366170000000001	2.92134	150.501	30.4963	-0.215074	0	-0.755064	0.0137086	0.706233	0.143106
10.29	-3.08624	314.382	-27.575	-0.232212	0	-0.386605	0.00921054	-0.938235	0.08229450000000001	3.00919	146.469	28.8846	-0.214974	0	-0.753717	0.013104	0.6378239999999999	0.125783
10.3	-2.88341	310.316	-27.3029	-0.232364	0	-0.386524	0.00867531	-0.93365	0.08214639999999999	3.02545	142.812	27.3074	-0.214827	0	-0.752324	0.0119472	0.563951	0.107834
10.31	-2.68264	307.434	-27.2109	-0.232485	0	-0.386389	0.00817061	-0.936362	0.0828772	2.967	139.692	25.8135	-0.214643	0	-0.750942	0.0103312	0.486415	0.0898837
10.32	-2.48931	305.651	-27.2588	-0.232575	0	-0.386218	0.00768285	-0.943344	0.08413	2.84192	137.253	24.4507	-0.21444	0	-0.749637	0.00844873	0.408039	0.07268959999999999
10.33	-2.29981	304.838	-27.3982	-0.232635	0	-0.386027	0.00718153	-0.951904	0.0855553	2.66852	135.613	23.2644	-0.214243	0	-0.748478	0.00654086	0.332403	0.0570239
10.34	-2.10152	304.816	-27.576	-0.232668	0	-0.385834	0.00661843	-0.9599760000000001	0.08684649999999999	2.47198	134.857	22.2949	-0.214084	0	-0.7475349999999999	0.00483122	0.263564	0.043573
10.35	-1.87742	305.388	-27.7404	-0.232679	0	-0.385655	0.00594056	-0.966315	0.08777649999999999	2.27816	135.033	21.5771	-0.213992	0	-0.746866	0.00346842	0.205583	0.0328503
10.36	-1.6129	306.36	-27.8475	-0.232672	0	-0.3855	0.00510968	-0.970548	0.0882207	2.10781	136.155	21.1408	-0.213983	0	-0.746514	0.00250619	0.161889	0.0251365
10.37	-1.30119	307.566	-27.8657	-0.232652	0	-0.385376	0.00411654	-0.973041	0.08815820000000001	1.97363	138.208	21.0093	-0.214062	0	-0.746503	0.00192486	0.134793	0.0204901
10.38	-0.946217	308.88	-27.7795	-0.232617	0	-0.385282	0.00298596	-0.974727	0.08766350000000001	1.88012	141.149	21.1948	-0.214217	0	-0.74683	0.0016703	0.125396	0.0188294
10.39	-0.563918	310.22	-27.5902	-0.232566	0	-0.385213	0.00177584	-0.976919	0.0868848	1.82526	144.906	21.6936	-0.214429	0	-0.747467	0.00168487	0.133761	0.0200251
10.4	-0.177756	311.549	-27.3124	-0.232494	0	-0.385161	0.000559782	-0.981113	0.086011	1.80207	149.389	22.485	-0.214671	0	-0.748364	0.00191631	0.15886	0.0239105
10.41	0.187919	312.852	-26.9713	-0.232396	0	-0.385118	-0.000593969	-0.988857	0.08525050000000001	1.80037	154.498	23.5339	-0.214918	0	-0.749463	0.00231548	0.198703	0.0302673
10.42	0.5131829999999999	314.12	-26.597	-0.232269	0	-0.385068	-0.00163629	-1.00158	0.0848048	1.80992	160.133	24.7944	-0.215153	0	-0.750695	0.00283237	0.250596	0.0388013
10.43	0.786076	315.334	-26.2195	-0.232115	0	-0.385002	-0.00254392	-1.02049	0.0848522	1.82383	166.197	26.2138	-0.215368	0	-0.752	0.00341806	0.311472	0.0491276
10.44	1.0016	316.473	-25.8657	-0.231939	0	-0.38491	-0.00331228	-1.04657	0.0855374	1.84073	172.593	27.736	-0.215561	0	-0.753322	0.00403431	0.37827	0.0607887
10.45	1.15726	317.515	-25.5555	-0.231745	0	-0.384783	-0.00393774	-1.08039	0.08695600000000001	1.8655	179.226	29.3063	-0.215739	0	-0.754613	0.00466726	0.448403	0.07332089999999999
10.46	1.24962	318.45	-25.2997	-0.231536	0	-0.384621	-0.00440322	-1.1221	0.0891472	1.90697	186.004	30.8755	-0.215906	0	-0.755836	0.00532996	0.519879	0.08629680000000001
10.47	1.27446	319.28	-25.0981	-0.231315	0	-0.384422	-0.00467698	-1.17169	0.0921044	1.97451	192.833	32.4029	-0.216074	0	-0.7569669999999999	0.0060537	0.59121	0.0993448
10.48	1.23049	320.023	-24.9409	-0.231083	0	-0.38419	-0.0047256	-1.22902	0.0957833	2.07659	199.625	33.8583	-0.216243	0	-0.7579900000000001	0.00688043	0.661423	0.112184
10.49	1.12289	320.707	-24.8121	-0.23084	0	-0.383932	-0.00453022	-1.29387	0.100103	2.21893	206.293	35.222	-0.216421	0	-0.758899	0.0078514	0.729941	0.124628
10.5	0.96429	321.37	-24.6959	-0.230587	0	-0.383651	-0.00409829	-1.36584	0.104959	2.40337	212.759	36.483	-0.216601	0	-0.759698	0.00899663	0.796428	0.136568
10.51	0.773016	322.058	-24.5805	-0.230322	0	-0.383354	-0.00346676	-1.44434	0.110237	2.62812	218.948	37.636	-0.216782	0	-0.760392	0.0103311	0.860685	0.147947
10.52	0.570242	322.822	-24.4625	-0.230045	0	-0.383043	-0.00269999	-1.5285	0.115825	2.88832	224.789	38.6798	-0.216954	0	-0.760992	0.0118541	0.922569	0.158748
10.53	0.376337	323.716	-24.3476	-0.229751	0	-0.382716	-0.00188009	-1.61721	0.121635	3.17638	230.213	39.6139	-0.217109	0	-0.761505	0.0135485	0.981945	0.168968
10.54	0.208421	324.793	-24.251	-0.229434	0	-0.382371	-0.00109674	-1.70911	0.127612	3.48223	235.149	40.4366	-0.217234	0	-0.761939	0.0153817	1.0387	0.178617
10.55	0.0792963	326.106	-24.1959	-0.229086	0	-0.382004	-0.000438323	-1.80261	0.133747	3.79372	239.528	41.1439	-0.217317	0	-0.762301	0.0173079	1.09279	0.187709
10.56	-0.00347576	327.707	-24.2096	-0.228696	0	-0.381611	2.01087e-05	-1.89591	0.140062	4.0961	243.283	41.7302	-0.217343	0	-0.762598	0.0192632	1.14412	0.196249
10.57	-0.0381352	329.643	-24.3199	-0.228257	0	-0.381185	0.000229892	-1.9872	0.146609	4.37216	246.36	42.1885	-0.217295	0	-0.762834	0.0211647	1.19258	0.204226
10.58	-0.0292088	331.955	-24.5505	-0.227758	0	-0.380726	0.000182557	-2.07473	0.153442	4.60304	248.715	42.5119	-0.21716	0	-0.763015	0.0229137	1.23809	0.211622
10.59	0.0122739	334.664	-24.9164	-0.22719	0	-0.380234	-7.91089e-05	-2.157	0.160593	4.76939	250.325	42.6943	-0.216918	0	-0.76315	0.0243984	1.28057	0.218407
10.6	0.0691302	337.768	-25.4207	-0.226548	0	-0.379711	-0.000456991	-2.23285	0.168046	4.85315	251.184	42.731	-0.216556	0	-0.763239	0.0254987	1.31973	0.224511
10.61	0.120207	341.234	-26.054	-0.225823	0	-0.379164	-0.000810775	-2.30155	0.175729	4.83949	251.306	42.6202	-0.21606	0	-0.76329	0.0260949	1.35506	0.229811
10.62	0.14346	344.993	-26.7947	-0.225014	0	-0.378602	-0.000982573	-2.3629	0.18352	4.71834	250.724	42.3631	-0.215421	0	-0.763304	0.0260796	1.38583	0.234153
10.63	0.119441	348.958	-27.6125	-0.224126	0	-0.378036	-0.000827335	-2.41713	0.191264	4.4851	249.494	41.9648	-0.214634	0	-0.763282	0.025371	1.41133	0.237384
10.64	0.033719	353.034	-28.4727	-0.223164	0	-0.377476	-0.00023543	-2.46493	0.1988	4.14114	247.691	41.4342	-0.213706	0	-0.763225	0.023925	1.43101	0.239381
10.65	-0.123178	357.135	-29.3399	-0.222139	0	-0.376935	0.000864754	-2.50721	0.205976	3.69475	245.406	40.784	-0.212646	0	-0.763135	0.0217488	1.44456	0.240071
10.66	-0.356962	361.179	-30.1808	-0.221062	0	-0.376425	0.0025153	-2.54501	0.212666	3.16191	242.751	40.0325	-0.21148	0	-0.763011	0.0189139	1.45209	0.239466
10.67	-0.670126	365.08	-30.966	-0.219945	0	-0.375954	0.00473424	-2.57918	0.218765	2.56713	239.852	39.2037	-0.210241	0	-0.762856	0.0155633	1.45411	0.237674
10.68	-1.06128	368.753	-31.672	-0.218797	0	-0.375529	0.00751248	-2.6103	0.224198	1.94207	236.841	38.3273	-0.20897	0	-0.762675	0.011901	1.45137	0.23487
10.69	-1.52429	372.11	-32.283	-0.217625	0	-0.375154	0.0108086	-2.6386	0.228916	1.32231	233.85	37.4366	-0.207709	0	-0.762476	0.008168959999999999	1.44468	0.231276
10.7	-2.04834	375.066	-32.7908	-0.216433	0	-0.374828	0.0145486	-2.66394	0.2329	0.743011	230.993	36.5667	-0.2065	0	-0.762267	0.00461546	1.43489	0.227146
10.71	-2.61809	377.556	-33.1942	-0.215229	0	-0.374546	0.018625	-2.68592	0.236143	0.235206	228.362	35.7511	-0.205383	0	-0.762059	0.0014655	1.42285	0.222754
10.72	-3.21486	379.541	-33.4979	-0.214017	0	-0.374306	0.0229039	-2.70399	0.238651	-0.17641	226.02	35.0192	-0.204389	0	-0.761865	-0.00109996	1.40928	0.218353
